<?xml version="1.0" encoding="utf-8"?>
<!-- Generator: Adobe Illustrator 23.1.0, SVG Export Plug-In . SVG Version: 6.00 Build 0)  -->
<svg version="1.1" id="Layer_1" xmlns="http://www.w3.org/2000/svg" xmlns:xlink="http://www.w3.org/1999/xlink" x="0px" y="0px"
	 viewBox="0 0 1200 1200" enable-background="new 0 0 1200 1200" xml:space="preserve">
<g>
	<g>
		<circle fill="#8A479B" cx="547.015" cy="861.568" r="26.484"/>
		<g>
			<path fill="#CA99C6" d="M497.181,719.733c3.146,12.082,48.01,110.058,58.77,126.607c10.76,16.55,0,0,0,0l-24.164,6.292
				c0,0-28.314-108.736-51.156-122.139L497.181,719.733z"/>
			<path fill="#CA99C6" d="M218.416,856.942c9.173-8.469,74.435-94.218,83.959-111.509c9.524-17.29,0,0,0,0l16.939,18.345
				c0,0-82.553,76.225-83.607,102.688L218.416,856.942z"/>
			<path fill="#CA99C6" d="M633.604,542.49c-12.185,2.721-111.673,44.122-128.589,54.296s0,0,0,0l-5.441-24.369
				c0,0,109.661-24.485,123.857-46.843L633.604,542.49z"/>
			<path fill="#CA99C6" d="M416.569,370.797c-2.923,15.224-4.923,148.934-1.692,173.206s0,0,0,0l-30.467-5.745
				c0,0,26.312-137.013,7.847-164.158L416.569,370.797z"/>
			<path fill="#CA99C6" d="M108.739,531.356c14.578,5.271,146.325,28.185,170.804,28.794c24.478,0.609,0,0,0,0l-10.446,29.191
				c0,0-131.202-47.443-160.903-33.456L108.739,531.356z"/>
			<path fill="#CA99C6" d="M257.08,375.197c5.324,14.559,72.389,130.251,87.645,149.404c15.256,19.152,0,0,0,0l-29.082,10.745
				c0,0-47.915-131.03-77.713-144.81L257.08,375.197z"/>
			<circle fill="#CA99C6" cx="388.762" cy="625.405" r="167.731"/>
			<circle fill="#8A479B" cx="325.71" cy="680.527" r="44.14"/>
			<circle fill="#8A479B" cx="227.416" cy="848.032" r="44.14"/>
			<circle fill="#8A479B" cx="94.147" cy="534.409" r="44.14"/>
			<circle fill="#8A479B" cx="257.819" cy="395.033" r="35.312"/>
			<circle fill="#8A479B" cx="405.946" cy="369.362" r="17.656"/>
			<circle fill="#8A479B" cx="657.204" cy="516.802" r="44.14"/>
			<circle fill="#8A479B" cx="297.395" cy="571.791" r="17.656"/>
			<circle fill="#8A479B" cx="361.201" cy="593.879" r="13.242"/>
		</g>
	</g>
	<g>
		<circle fill="#8A479B" cx="952.594" cy="919.08" r="12.507"/>
		<g>
			<path fill="#CA99C6" d="M905.107,866.304c3.566,4.695,40.92,39.256,48.617,44.515c7.697,5.26,0,0,0,0l-9.39,7.132
				c0,0-32.094-42.257-44.486-43.951L905.107,866.304z"/>
			<path fill="#CA99C6" d="M808.511,976.753c2.46-5.358,15.333-54.593,16.344-63.86c1.011-9.267,0,0,0,0l10.716,4.92
				c0,0-22.14,48.224-17.793,59.951L808.511,976.753z"/>
			<path fill="#CA99C6" d="M932.381,764.258c-4.817,3.399-40.666,39.519-46.192,47.027c-5.526,7.508,0,0,0,0l-6.799-9.635
				c0,0,43.356-30.593,45.483-42.918L932.381,764.258z"/>
			<path fill="#CA99C6" d="M806.583,728.838c1.491,7.167,24.907,65.818,30.725,75.811s0,0,0,0l-14.325,3.03
				c0,0-13.418-64.506-26.398-72.985L806.583,728.838z"/>
			<path fill="#CA99C6" d="M701.558,854.746c7.312-0.35,68.906-14.293,79.688-18.474c10.781-4.181,0,0,0,0l0.749,14.622
				c0,0-65.812,3.151-76.219,14.643L701.558,854.746z"/>
			<path fill="#CA99C6" d="M737.857,759.726c4.965,5.379,55.216,43.63,65.345,49.208c10.13,5.578,0,0,0,0l-10.726,9.967
				c0,0-44.689-48.415-60.181-49.01L737.857,759.726z"/>
			<circle fill="#CA99C6" cx="840.71" cy="844.878" r="79.212"/>
			<circle fill="#8A479B" cx="823.237" cy="880.36" r="20.845"/>
			<circle fill="#8A479B" cx="810.816" cy="971.234" r="20.845"/>
			<circle fill="#8A479B" cx="695.752" cy="858.727" r="20.845"/>
			<circle fill="#8A479B" cx="741.783" cy="768.239" r="16.676"/>
			<circle fill="#8A479B" cx="801.691" cy="730.142" r="8.338"/>
			<circle fill="#8A479B" cx="938.002" cy="748.773" r="20.845"/>
			<circle fill="#8A479B" cx="791.143" cy="838.103" r="8.338"/>
			<circle fill="#8A479B" cx="822.969" cy="836.142" r="6.254"/>
		</g>
	</g>
	<g>
		<circle fill="#8A479B" cx="785.286" cy="352.195" r="16.057"/>
		<g>
			<path fill="#CA99C6" d="M863.478,399.033c-6.148-4.415-65.03-32.725-76.459-36.274s0,0,0,0l8.831-12.296
				c0,0,55.332,39.739,71.178,37.14L863.478,399.033z"/>
			<path fill="#CA99C6" d="M940.321,227.042c-0.996,7.503,1.791,72.777,4.048,84.531s0,0,0,0l-15.007-1.992
				c0,0,8.966-67.531-0.795-80.281L940.321,227.042z"/>
			<path fill="#CA99C6" d="M868.527,534.545c4.628-5.99,34.984-63.843,38.932-75.141c3.948-11.298,0,0,0,0l11.979,9.257
				c0,0-41.654,53.905-39.612,69.832L868.527,534.545z"/>
			<path fill="#CA99C6" d="M1036.262,530.528c-4.535-8.232-55.406-71.363-66.317-81.43c-10.911-10.067,0,0,0,0l16.434-9.124
				c0,0,40.813,74.09,59.941,79.595L1036.262,530.528z"/>
			<path fill="#CA99C6" d="M1117.612,336.387c-8.841,3.19-79.159,43.547-90.811,52.747c-11.652,9.2,0,0,0,0l-6.438-17.66
				c0,0,79.567-28.707,88-46.737L1117.612,336.387z"/>
			<path fill="#CA99C6" d="M1108.935,466.684c-8.123-4.727-84.223-32.697-98.758-35.718c-14.535-3.021,0,0,0,0l9.4-16.278
				c0,0,73.111,42.542,92.346,37.424L1108.935,466.684z"/>
			<circle fill="#CA99C6" cx="950.585" cy="401.017" r="101.694"/>
			<circle fill="#8A479B" cx="958.634" cy="350.882" r="26.762"/>
			<circle fill="#8A479B" cx="939.575" cy="234.684" r="26.762"/>
			<circle fill="#8A479B" cx="1123.234" cy="329.309" r="26.762"/>
			<circle fill="#8A479B" cx="1100.905" cy="457.72" r="21.409"/>
			<circle fill="#8A479B" cx="1041.771" cy="527.081" r="10.705"/>
			<circle fill="#8A479B" cx="867.473" cy="555.669" r="26.762"/>
			<circle fill="#8A479B" cx="1013.966" cy="390.622" r="10.705"/>
			<circle fill="#8A479B" cx="975.652" cy="405.041" r="8.028"/>
		</g>
	</g>
</g>
</svg>
