<svg id="e3ek5pgunhn11" xmlns="http://www.w3.org/2000/svg" xmlns:xlink="http://www.w3.org/1999/xlink" viewBox="0 0 1000 1000" shape-rendering="geometricPrecision" text-rendering="geometricPrecision"><style><![CDATA[#e3ek5pgunhn111_to {animation: e3ek5pgunhn111_to__to 3000ms linear infinite normal forwards}@keyframes e3ek5pgunhn111_to__to { 0% {transform: translate(241.431018px,237.017661px)} 50% {transform: translate(749.741694px,756px)} 100% {transform: translate(248.414063px,244px)} }#e3ek5pgunhn111_tr {animation: e3ek5pgunhn111_tr__tr 3000ms linear infinite normal forwards}@keyframes e3ek5pgunhn111_tr__tr { 0% {transform: rotate(0deg)} 50% {transform: rotate(180deg)} 100% {transform: rotate(360deg)} }#e3ek5pgunhn112 {animation: e3ek5pgunhn112_c_o 3000ms linear infinite normal forwards}@keyframes e3ek5pgunhn112_c_o { 0% {opacity: 1} 50% {opacity: 0} 100% {opacity: 1} }]]></style><path id="e3ek5pgunhn12" d="M247.171875,97.101562C242.296875,97.101562,238.343750,93.152344,238.343750,88.277344L238.343750,52.964844C238.343750,48.089844,242.296875,44.136719,247.171875,44.136719C252.046875,44.136719,256,48.089844,256,52.964844L256,88.277344C256,93.152344,252.046875,97.101562,247.171875,97.101562ZM247.171875,97.101562" transform="matrix(1 0 0 1 248.41406250070577 244.00000000492923)" fill="rgb(101,221,185)" stroke="none" stroke-width="1" stroke-opacity="0.44"/><path id="e3ek5pgunhn13" d="M128.574219,146.230469C126.234375,146.226562,123.988281,145.296875,122.332031,143.640625L91.117188,112.429688C87.773438,108.964844,87.820312,103.457031,91.226562,100.054688C94.632812,96.648438,100.136719,96.601562,103.601562,99.945312L134.816406,131.160156C137.339844,133.683594,138.093750,137.480469,136.726562,140.777344C135.363281,144.078125,132.144531,146.226562,128.574219,146.230469ZM128.574219,146.230469" transform="matrix(1 0 0 1 248.41406250070577 244.00000000492923)" fill="rgb(101,221,185)" stroke="none" stroke-width="1" stroke-opacity="0.44"/><path id="e3ek5pgunhn14" d="M79.449219,264.828125L44.136719,264.828125C39.261719,264.828125,35.308594,260.875000,35.308594,256C35.308594,251.125000,39.261719,247.171875,44.136719,247.171875L79.449219,247.171875C84.324219,247.171875,88.277344,251.125000,88.277344,256C88.277344,260.875000,84.324219,264.828125,79.449219,264.828125ZM79.449219,264.828125" transform="matrix(1 0 0 1 248.41406250070577 244.00000000492923)" fill="rgb(101,221,185)" stroke="none" stroke-width="1" stroke-opacity="0.44"/><path id="e3ek5pgunhn15" d="M97.359375,414.640625C93.789062,414.640625,90.570312,412.488281,89.207031,409.191406C87.839844,405.894531,88.593750,402.097656,91.117188,399.570312L122.332031,368.359375C125.796875,365.011719,131.300781,365.058594,134.707031,368.464844C138.113281,371.871094,138.160156,377.375000,134.816406,380.839844L103.601562,412.054688C101.945312,413.710938,99.699219,414.640625,97.359375,414.640625ZM97.359375,414.640625" transform="matrix(1 0 0 1 248.41406250070577 244.00000000492923)" fill="rgb(101,221,185)" stroke="none" stroke-width="1" stroke-opacity="0.44"/><path id="e3ek5pgunhn16" d="M247.171875,467.863281C242.296875,467.863281,238.343750,463.910156,238.343750,459.035156L238.343750,423.722656C238.343750,418.847656,242.296875,414.898438,247.171875,414.898438C252.046875,414.898438,256,418.847656,256,423.722656L256,459.035156C256,463.910156,252.046875,467.863281,247.171875,467.863281ZM247.171875,467.863281" transform="matrix(1 0 0 1 248.41406250070577 244.00000000492923)" fill="rgb(101,221,185)" stroke="none" stroke-width="1" stroke-opacity="0.44"/><path id="e3ek5pgunhn17" d="M396.984375,414.640625C394.644531,414.640625,392.398438,413.710938,390.746094,412.054688L359.531250,380.839844C356.183594,377.375000,356.230469,371.871094,359.636719,368.464844C363.042969,365.058594,368.546875,365.011719,372.011719,368.359375L403.226562,399.570312C405.750000,402.097656,406.503906,405.894531,405.140625,409.191406C403.773438,412.488281,400.554688,414.640625,396.984375,414.640625ZM396.984375,414.640625" transform="matrix(1 0 0 1 248.41406250070577 244.00000000492923)" fill="rgb(101,221,185)" stroke="none" stroke-width="1" stroke-opacity="0.44"/><path id="e3ek5pgunhn18" d="M459.035156,264.828125L414.898438,264.828125C410.019531,264.828125,406.070312,260.875000,406.070312,256C406.070312,251.125000,410.019531,247.171875,414.898438,247.171875L459.035156,247.171875C463.910156,247.171875,467.863281,251.125000,467.863281,256C467.863281,260.875000,463.910156,264.828125,459.035156,264.828125ZM459.035156,264.828125" transform="matrix(1 0 0 1 248.41406250070577 244.00000000492923)" fill="rgb(101,221,185)" stroke="none" stroke-width="1" stroke-opacity="0.44"/><path id="e3ek5pgunhn19" d="M365.769531,146.230469C362.203125,146.226562,358.984375,144.078125,357.617188,140.777344C356.250000,137.480469,357.007812,133.683594,359.531250,131.160156L390.746094,99.945312C392.960938,97.652344,396.242188,96.730469,399.328125,97.539062C402.414062,98.347656,404.824219,100.757812,405.632812,103.843750C406.441406,106.929688,405.519531,110.210938,403.226562,112.429688L372.011719,143.640625C370.355469,145.296875,368.113281,146.226562,365.769531,146.230469ZM365.769531,146.230469" transform="matrix(1 0 0 1 248.41406250070577 244.00000000492923)" fill="rgb(101,221,185)" stroke="none" stroke-width="1" stroke-opacity="0.44"/><path id="e3ek5pgunhn110" d="M414.898438,256C414.898438,348.632812,339.804688,423.722656,247.171875,423.722656C154.539062,423.722656,79.449219,348.632812,79.449219,256C79.449219,163.367188,154.539062,88.277344,247.171875,88.277344C339.804688,88.277344,414.898438,163.367188,414.898438,256ZM414.898438,256" transform="matrix(1 0 0 1 248.41406250070577 244.00000000492923)" fill="rgb(70,178,157)" stroke="none" stroke-width="1" stroke-opacity="0.44"/><g id="e3ek5pgunhn111_to" transform="translate(241.431018,237.017661)"><g id="e3ek5pgunhn111_tr" transform="rotate(0)"><path id="e3ek5pgunhn111" style="mix-blend-mode:hard-light" d="M247.171875,397.242188C242.296875,397.242188,238.343750,393.289062,238.343750,388.414062C238.343750,383.539062,242.296875,379.585938,247.171875,379.585938C315.398438,379.511719,370.687500,324.222656,370.757812,256C370.757812,251.125000,374.710938,247.171875,379.585938,247.171875C384.460938,247.171875,388.414062,251.125000,388.414062,256C388.320312,333.968750,325.140625,397.148438,247.171875,397.242188ZM247.171875,397.242188" transform="translate(0,0)" fill="rgb(101,221,185)" stroke="none" stroke-width="1" stroke-opacity="0.44"/></g></g><g id="e3ek5pgunhn112" transform="matrix(1 0 0 1 248.41406250002910 244.00000000000045)"><path id="e3ek5pgunhn113" d="M457.261719,81.222656C457.261719,100.722656,441.449219,116.531250,421.949219,116.531250C402.449219,116.531250,386.640625,100.722656,386.640625,81.222656C386.640625,61.722656,402.449219,45.914062,421.949219,45.914062C441.449219,45.914062,457.261719,61.722656,457.261719,81.222656ZM457.261719,81.222656" transform="matrix(1 0 0 1 0.00000000070503 0.00000000492878)" fill="rgb(20,160,133)" stroke="none" stroke-width="1" stroke-opacity="0.44"/><path id="e3ek5pgunhn114" d="M317.792969,194.207031C317.792969,213.707031,301.984375,229.515625,282.484375,229.515625C262.980469,229.515625,247.171875,213.707031,247.171875,194.207031C247.171875,174.707031,262.980469,158.898438,282.484375,158.898438C301.984375,158.898438,317.792969,174.707031,317.792969,194.207031ZM317.792969,194.207031" transform="matrix(1 0 0 1 0.00000000070503 0.00000000492878)" fill="rgb(20,160,133)" stroke="none" stroke-width="1" stroke-opacity="0.44"/><path id="e3ek5pgunhn115" d="M194.207031,220.691406C194.207031,235.316406,182.351562,247.171875,167.722656,247.171875C153.097656,247.171875,141.242188,235.316406,141.242188,220.691406C141.242188,206.062500,153.097656,194.207031,167.722656,194.207031C182.351562,194.207031,194.207031,206.062500,194.207031,220.691406ZM194.207031,220.691406" transform="matrix(1 0 0 1 0.00000000070503 0.00000000492878)" fill="rgb(20,160,133)" stroke="none" stroke-width="1" stroke-opacity="0.44"/><path id="e3ek5pgunhn116" d="M194.207031,361.929688C193.054688,361.917969,191.914062,361.675781,190.851562,361.226562C189.781250,360.777344,188.796875,360.148438,187.937500,359.371094C187.140625,358.527344,186.511719,357.539062,186.085938,356.457031C185.632812,355.398438,185.394531,354.257812,185.378906,353.101562C185.414062,350.765625,186.328125,348.527344,187.937500,346.835938C188.796875,346.058594,189.781250,345.429688,190.851562,344.980469C194.144531,343.648438,197.914062,344.375000,200.472656,346.835938C202.085938,348.527344,203,350.765625,203.035156,353.101562C203.019531,354.257812,202.781250,355.398438,202.328125,356.457031C201.902344,357.539062,201.273438,358.527344,200.472656,359.371094C198.781250,360.984375,196.542969,361.898438,194.207031,361.929688ZM194.207031,361.929688" transform="matrix(1 0 0 1 0.00000000070503 0.00000000492878)" fill="rgb(20,160,133)" stroke="none" stroke-width="1" stroke-opacity="0.44"/><path id="e3ek5pgunhn117" d="M273.656250,300.136719C273.656250,314.765625,261.796875,326.621094,247.171875,326.621094C232.546875,326.621094,220.691406,314.765625,220.691406,300.136719C220.691406,285.511719,232.546875,273.656250,247.171875,273.656250C261.796875,273.656250,273.656250,285.511719,273.656250,300.136719ZM273.656250,300.136719" transform="matrix(1 0 0 1 0.00000000070503 0.00000000492878)" fill="rgb(20,160,133)" stroke="none" stroke-width="1" stroke-opacity="0.44"/><path id="e3ek5pgunhn118" d="M150.070312,308.964844C148.914062,308.953125,147.777344,308.710938,146.714844,308.257812C145.644531,307.812500,144.660156,307.183594,143.800781,306.406250C143.003906,305.562500,142.375000,304.574219,141.949219,303.492188C141.496094,302.429688,141.253906,301.292969,141.242188,300.136719C141.277344,297.800781,142.191406,295.562500,143.800781,293.871094C144.660156,293.089844,145.644531,292.464844,146.714844,292.015625C150.007812,290.683594,153.773438,291.410156,156.335938,293.871094C157.949219,295.562500,158.863281,297.800781,158.898438,300.136719C158.882812,301.292969,158.644531,302.429688,158.191406,303.492188C157.765625,304.574219,157.132812,305.562500,156.335938,306.406250C154.644531,308.015625,152.406250,308.929688,150.070312,308.964844ZM150.070312,308.964844" transform="matrix(1 0 0 1 0.00000000070503 0.00000000492878)" fill="rgb(20,160,133)" stroke="none" stroke-width="1" stroke-opacity="0.44"/><path id="e3ek5pgunhn119" d="M273.656250,26.484375C273.656250,41.109375,261.796875,52.964844,247.171875,52.964844C232.546875,52.964844,220.691406,41.109375,220.691406,26.484375C220.691406,11.855469,232.546875,0,247.171875,0C261.796875,0,273.656250,11.855469,273.656250,26.484375ZM273.656250,26.484375" transform="matrix(1 0 0 1 0.00000000070503 0.00000000492878)" fill="rgb(20,160,133)" stroke="none" stroke-width="1" stroke-opacity="0.44"/><path id="e3ek5pgunhn120" d="M107.707031,81.222656C107.707031,100.722656,91.894531,116.531250,72.394531,116.531250C52.894531,116.531250,37.085938,100.722656,37.085938,81.222656C37.085938,61.722656,52.894531,45.914062,72.394531,45.914062C91.894531,45.914062,107.707031,61.722656,107.707031,81.222656ZM107.707031,81.222656" transform="matrix(1 0 0 1 0.00000000070503 0.00000000492878)" fill="rgb(20,160,133)" stroke="none" stroke-width="1" stroke-opacity="0.44"/><path id="e3ek5pgunhn121" d="M44.136719,256C44.136719,268.187500,34.257812,278.070312,22.070312,278.070312C9.878906,278.070312,-0,268.187500,-0,256C-0,243.812500,9.878906,233.929688,22.070312,233.929688C34.257812,233.929688,44.136719,243.812500,44.136719,256ZM44.136719,256" transform="matrix(1 0 0 1 0.00000000070503 0.00000000492878)" fill="rgb(20,160,133)" stroke="none" stroke-width="1" stroke-opacity="0.44"/><path id="e3ek5pgunhn122" d="M107.707031,430.777344C107.707031,450.277344,91.894531,466.085938,72.394531,466.085938C52.894531,466.085938,37.085938,450.277344,37.085938,430.777344C37.085938,411.277344,52.894531,395.468750,72.394531,395.468750C91.894531,395.468750,107.707031,411.277344,107.707031,430.777344ZM107.707031,430.777344" transform="matrix(1 0 0 1 0.00000000070503 0.00000000492878)" fill="rgb(20,160,133)" stroke="none" stroke-width="1" stroke-opacity="0.44"/><path id="e3ek5pgunhn123" d="M273.656250,485.515625C273.656250,500.144531,261.796875,512,247.171875,512C232.546875,512,220.691406,500.144531,220.691406,485.515625C220.691406,470.890625,232.546875,459.035156,247.171875,459.035156C261.796875,459.035156,273.656250,470.890625,273.656250,485.515625ZM273.656250,485.515625" transform="matrix(1 0 0 1 0.00000000070503 0.00000000492878)" fill="rgb(20,160,133)" stroke="none" stroke-width="1" stroke-opacity="0.44"/><path id="e3ek5pgunhn124" d="M457.261719,430.777344C457.261719,450.277344,441.449219,466.085938,421.949219,466.085938C402.449219,466.085938,386.640625,450.277344,386.640625,430.777344C386.640625,411.277344,402.449219,395.468750,421.949219,395.468750C441.449219,395.468750,457.261719,411.277344,457.261719,430.777344ZM457.261719,430.777344" transform="matrix(1 0 0 1 0.00000000070503 0.00000000492878)" fill="rgb(20,160,133)" stroke="none" stroke-width="1" stroke-opacity="0.44"/><path id="e3ek5pgunhn125" d="M512,256C512,270.625000,500.144531,282.484375,485.515625,282.484375C470.890625,282.484375,459.035156,270.625000,459.035156,256C459.035156,241.375000,470.890625,229.515625,485.515625,229.515625C500.144531,229.515625,512,241.375000,512,256ZM512,256" transform="matrix(1 0 0 1 0.00000000070503 0.00000000492878)" fill="rgb(20,160,133)" stroke="none" stroke-width="1" stroke-opacity="0.44"/></g></svg>